<?xml version="1.0" encoding="UTF-8" standalone="no"?><!DOCTYPE svg PUBLIC "-//W3C//DTD SVG 1.1//EN" "http://www.w3.org/Graphics/SVG/1.1/DTD/svg11.dtd"><svg width="100%" height="100%" viewBox="0 0 192 192" version="1.1" xmlns="http://www.w3.org/2000/svg" xmlns:xlink="http://www.w3.org/1999/xlink" xml:space="preserve" xmlns:serif="http://www.serif.com/" style="fill-rule:evenodd;clip-rule:evenodd;stroke-linejoin:round;stroke-miterlimit:1.41421;"><path d="M91.065,95.593c1.094,0 1.991,0.903 1.991,1.997c0,1.094 -0.897,1.991 -1.991,1.991c-1.126,0 -1.997,-0.897 -1.997,-1.991c0,-1.094 0.871,-1.997 1.997,-1.997Zm-4.793,-3.7c-2.639,-1.185 -5.016,-2.829 -7.014,-4.82c-4.276,-4.309 -6.941,-10.228 -6.941,-16.757c0,-1.703 0.19,-3.379 0.544,-5.016l-3.7,-7.014c-0.387,-0.772 -0.092,-1.702 0.641,-2.121c0.773,-0.387 1.71,-0.099 2.129,0.674l2.246,4.276c1.192,-2.796 2.894,-5.369 5.081,-7.557c0.616,-0.609 1.611,-0.609 2.22,0c0.583,0.609 0.583,1.611 0,2.22c-1.958,1.932 -3.438,4.211 -4.466,6.66c-1.034,2.475 -1.578,5.141 -1.578,7.878c0,2.023 0.288,3.988 0.871,5.854l2.443,-2.154c-0.099,-0.452 -0.164,-0.904 -0.23,-1.356c-0.091,-0.799 -0.157,-1.572 -0.157,-2.344c0,-2.541 0.544,-5.016 1.578,-7.269c1.028,-2.253 2.508,-4.309 4.401,-5.985c0.648,-0.577 1.644,-0.511 2.22,0.131c0.55,0.674 0.484,1.643 -0.157,2.22c-1.546,1.381 -2.803,3.058 -3.635,4.918c-0.386,0.838 -0.674,1.741 -0.903,2.639l3.699,-1.192c0.839,-0.256 1.703,0.196 1.965,1.002c0.255,0.831 -0.196,1.702 -1.002,1.958l-5.049,1.611c0,0.674 0.033,1.283 0.131,1.899c0.098,0.641 0.19,1.25 0.354,1.859c0.19,0.55 0.033,1.192 -0.452,1.611l-4.021,3.536c0.675,1.382 1.48,2.705 2.449,3.89l5.658,-5.173c0.609,-0.583 1.605,-0.55 2.187,0.065c0.577,0.642 0.544,1.637 -0.098,2.214l-5.625,5.18c3.667,3.379 8.552,5.435 13.955,5.435c5.369,0 10.261,-2.056 13.928,-5.435l-5.631,-5.18c-0.642,-0.577 -0.675,-1.572 -0.092,-2.214c0.576,-0.615 1.572,-0.648 2.213,-0.065l5.632,5.173c0.963,-1.185 1.768,-2.508 2.442,-3.89l-4.02,-3.536c-0.478,-0.419 -0.642,-1.061 -0.452,-1.611c0.164,-0.609 0.295,-1.218 0.354,-1.859c0.098,-0.616 0.131,-1.225 0.131,-1.867l-5.049,-1.643c-0.806,-0.256 -1.251,-1.127 -0.996,-1.958c0.256,-0.806 1.127,-1.258 1.958,-1.002l3.7,1.192c-0.222,-0.898 -0.511,-1.801 -0.897,-2.639c-0.838,-1.86 -2.063,-3.537 -3.634,-4.918c-0.649,-0.577 -0.708,-1.546 -0.164,-2.22c0.583,-0.642 1.578,-0.708 2.22,-0.131c1.899,1.676 3.412,3.732 4.407,5.985c1.028,2.253 1.572,4.728 1.572,7.269c0,0.772 -0.059,1.545 -0.158,2.344c-0.065,0.452 -0.131,0.904 -0.222,1.356l2.475,2.154c0.544,-1.866 0.832,-3.831 0.832,-5.854c0,-2.737 -0.544,-5.403 -1.572,-7.878c-0.995,-2.449 -2.508,-4.728 -4.44,-6.66c-0.609,-0.609 -0.609,-1.611 0,-2.22c0.577,-0.609 1.578,-0.609 2.187,0c2.188,2.188 3.89,4.761 5.082,7.557l2.253,-4.276c0.419,-0.773 1.349,-1.061 2.121,-0.674c0.74,0.419 1.028,1.349 0.642,2.121l-3.7,6.981c0.354,1.637 0.55,3.346 0.55,5.049c0,6.529 -2.671,12.448 -6.948,16.757c-0.576,0.544 -1.191,1.094 -1.8,1.605c0.255,0.32 0.419,0.707 0.386,1.126c-0.066,2.154 -0.838,4.407 -2.089,6.208c-1.002,1.447 -2.318,2.573 -3.896,3.182c-0.387,1.736 -0.577,4.309 -0.609,7.204c-0.033,3.477 0.163,7.367 0.609,10.903c0.032,0.098 0.032,0.229 0.032,0.321c0,0.871 -0.707,1.578 -1.538,1.578l-15.762,0c-0.066,0 -0.131,0 -0.223,-0.033c-0.838,-0.098 -1.415,-0.897 -1.323,-1.735c0.066,-0.452 0.131,-0.904 0.164,-1.382c0.065,-0.517 0.065,-1.002 0.098,-1.415c0,-1.093 0.033,-2.03 0.059,-2.835c0.196,-4.466 0.196,-5.082 -4.663,-6.529l-0.091,0c-2.286,-0.674 -5.245,-1.539 -6.405,-3.791c-0.288,-0.583 -1.093,-2.476 -1.604,-4.054c-0.386,-1.224 -0.648,-2.377 -0.55,-3.025c0.131,-0.675 0.707,-1.185 1.382,-1.251c1.447,-0.131 2.802,-0.164 4.086,-0.196c2.508,-0.059 4.826,-0.092 7.269,-1.061Zm15.788,24.19c-0.321,-3.222 -0.478,-6.627 -0.445,-9.718c0.065,-3.635 0.353,-6.883 0.962,-8.841c0.164,-0.582 0.642,-0.995 1.192,-1.093c1.126,-0.256 2.122,-1.094 2.894,-2.187c0.544,-0.773 0.93,-1.644 1.218,-2.541c-0.353,0.223 -0.641,0.452 -0.962,0.707c-0.419,0.354 -0.871,0.707 -1.382,1.028c-0.065,0.033 -0.098,0.066 -0.164,0.066l0,0.032c-3.568,1.546 -7.236,1.218 -10.706,0.93c-2.705,-0.255 -5.246,-0.478 -7.171,0.288c-2.992,1.192 -5.599,1.258 -8.428,1.323c-0.707,0 -1.381,0 -2.121,0.033l0.098,0.354c0.478,1.447 1.152,3.117 1.414,3.601c0.544,1.061 2.797,1.703 4.499,2.22l0.098,0.033c7.204,2.089 7.171,3.019 6.916,9.613c-0.033,0.838 -0.066,1.768 -0.099,2.763c0,0.485 -0.032,0.97 -0.065,1.389l12.252,0Z"/><text x="71.011px" y="143.844px" style="font-family:'OpenSans-Bold', 'Open Sans', sans-serif;font-weight:700;font-size:19.146px;">DEER</text><text x="79.549px" y="158.628px" style="font-family:'OpenSans', 'Open Sans', sans-serif;font-size:11.66px;">L<tspan x="85.367px 94.449px " y="158.628px 158.628px ">OO</tspan>T</text></svg>